<svg width="2750" height="2750" viewBox="0 0 2750 2750" fill="none" xmlns="http://www.w3.org/2000/svg">
<circle cx="62.5" cy="62.5" r="61" transform="matrix(1 0 0 -1 56 1438)" stroke="white" stroke-width="3"/>
<circle cx="93.5" cy="93.5" r="92" transform="matrix(1 0 0 -1 25 1469)" stroke="white" stroke-width="3"/>
<circle cx="85.5" cy="85.5" r="84" transform="matrix(1 0 0 -1 1289 2716)" stroke="white" stroke-width="3"/>
<circle cx="62.5" cy="62.5" r="61" transform="matrix(1 0 0 -1 2329 2171)" stroke="white" stroke-width="3"/>
<circle cx="15" cy="15" r="13.5" transform="matrix(1 0 0 -1 2425 2053)" stroke="white" stroke-width="3"/>
<mask id="path-6-outside-1_26_345" maskUnits="userSpaceOnUse" x="118.504" y="120" width="2512" height="2510" fill="black">
<rect fill="white" x="118.504" y="120" width="2512" height="2510"/>
<path d="M121.503 1437.93C152.412 2073.52 656.526 2584.86 1289.06 2627.17C1289.05 2627.5 1289.04 2627.83 1289.03 2628.17H1289.03C655.97 2585.84 151.434 2074.08 120.504 1437.97C120.838 1437.96 121.171 1437.94 121.503 1437.93ZM2354.78 2159.08C2141.55 2425.79 1821.79 2603.62 1459.96 2628.1V2628.1C1459.96 2627.76 1459.95 2627.43 1459.93 2627.1C1821.44 2602.63 2140.92 2424.96 2353.97 2158.48C2354.24 2158.68 2354.51 2158.88 2354.78 2159.08ZM2431.44 2050.32C2431.72 2050.51 2432 2050.69 2432.28 2050.86C2430.83 2053.14 2429.37 2055.42 2427.9 2057.69C2427.63 2057.49 2427.35 2057.3 2427.08 2057.11C2428.54 2054.85 2429.99 2052.59 2431.44 2050.32ZM1374 121C2067.12 121 2629 682.883 2629 1376C2629 1613.69 2562.92 1835.94 2448.13 2025.4C2447.86 2025.22 2447.57 2025.04 2447.28 2024.88C2561.97 1835.58 2628 1613.5 2628 1376C2628 683.435 2066.57 122 1374 122C702.537 122 154.336 649.745 121.553 1313.07C121.22 1313.06 120.887 1313.04 120.553 1313.03C153.356 649.171 701.997 121 1374 121Z"/>
</mask>
<path d="M121.503 1437.93C152.412 2073.52 656.526 2584.86 1289.06 2627.17C1289.05 2627.5 1289.04 2627.83 1289.03 2628.17H1289.03C655.97 2585.84 151.434 2074.08 120.504 1437.97C120.838 1437.96 121.171 1437.94 121.503 1437.93ZM2354.78 2159.08C2141.55 2425.79 1821.79 2603.62 1459.96 2628.1V2628.1C1459.96 2627.76 1459.95 2627.43 1459.93 2627.1C1821.44 2602.63 2140.92 2424.96 2353.97 2158.48C2354.24 2158.68 2354.51 2158.88 2354.78 2159.08ZM2431.44 2050.32C2431.72 2050.51 2432 2050.69 2432.28 2050.86C2430.83 2053.14 2429.37 2055.42 2427.9 2057.69C2427.63 2057.49 2427.35 2057.3 2427.08 2057.11C2428.54 2054.85 2429.99 2052.59 2431.44 2050.32ZM1374 121C2067.12 121 2629 682.883 2629 1376C2629 1613.69 2562.92 1835.94 2448.13 2025.4C2447.86 2025.22 2447.57 2025.04 2447.28 2024.88C2561.97 1835.58 2628 1613.5 2628 1376C2628 683.435 2066.57 122 1374 122C702.537 122 154.336 649.745 121.553 1313.07C121.22 1313.06 120.887 1313.04 120.553 1313.03C153.356 649.171 701.997 121 1374 121Z" fill="white"/>
<path d="M121.503 1437.93L122.502 1437.88L122.453 1436.88L121.456 1436.93L121.503 1437.93ZM1289.06 2627.17L1290.06 2627.2L1290.1 2626.23L1289.13 2626.17L1289.06 2627.17ZM1289.03 2628.17V2629.17H1290.01L1290.03 2628.19L1289.03 2628.17ZM1289.03 2628.17L1288.96 2629.16L1289 2629.17H1289.03V2628.17ZM120.504 1437.97L120.472 1436.97L119.456 1437L119.505 1438.02L120.504 1437.97ZM2354.78 2159.08L2355.56 2159.7L2356.21 2158.89L2355.37 2158.27L2354.78 2159.08ZM1459.96 2628.1H1458.96V2629.17L1460.03 2629.1L1459.96 2628.1ZM1459.96 2628.1H1460.96V2628.08L1460.96 2628.07L1459.96 2628.1ZM1459.93 2627.1L1459.87 2626.1L1458.9 2626.17L1458.93 2627.14L1459.93 2627.1ZM2353.97 2158.48L2354.57 2157.68L2353.8 2157.1L2353.19 2157.86L2353.97 2158.48ZM2431.44 2050.32L2432.01 2049.5L2431.16 2048.91L2430.6 2049.78L2431.44 2050.32ZM2432.28 2050.86L2433.13 2051.4L2433.68 2050.54L2432.8 2050.01L2432.28 2050.86ZM2427.9 2057.69L2427.31 2058.5L2428.17 2059.11L2428.74 2058.23L2427.9 2057.69ZM2427.08 2057.11L2426.24 2056.56L2425.71 2057.38L2426.51 2057.93L2427.08 2057.11ZM2448.13 2025.4L2447.59 2026.24L2448.46 2026.8L2448.99 2025.91L2448.13 2025.4ZM2447.28 2024.88L2446.42 2024.36L2445.88 2025.25L2446.79 2025.76L2447.28 2024.88ZM121.553 1313.07L121.505 1314.07L122.502 1314.12L122.552 1313.12L121.553 1313.07ZM120.553 1313.03L119.554 1312.98L119.504 1314L120.521 1314.03L120.553 1313.03ZM121.503 1437.93L120.504 1437.98C151.438 2074.08 655.954 2585.82 1289 2628.16L1289.06 2627.17L1289.13 2626.17C657.099 2583.89 153.386 2072.96 122.502 1437.88L121.503 1437.93ZM1289.06 2627.17L1288.06 2627.13C1288.05 2627.47 1288.04 2627.81 1288.03 2628.14L1289.03 2628.17L1290.03 2628.19C1290.04 2627.86 1290.05 2627.53 1290.06 2627.2L1289.06 2627.17ZM1289.03 2628.17V2627.17H1289.03V2628.17V2629.17H1289.03V2628.17ZM1289.03 2628.17L1289.1 2627.17C656.543 2584.88 152.408 2073.53 121.503 1437.92L120.504 1437.97L119.505 1438.02C150.46 2074.64 655.398 2586.81 1288.96 2629.16L1289.03 2628.17ZM120.504 1437.97L120.535 1438.97C120.874 1438.96 121.212 1438.94 121.55 1438.93L121.503 1437.93L121.456 1436.93C121.129 1436.94 120.801 1436.96 120.472 1436.97L120.504 1437.97ZM2354.78 2159.08L2354 2158.45C2140.93 2424.96 1821.43 2602.64 1459.9 2627.1L1459.96 2628.1L1460.03 2629.1C1822.14 2604.6 2142.16 2426.63 2355.56 2159.7L2354.78 2159.08ZM1459.96 2628.1H1460.96V2628.1H1459.96H1458.96V2628.1H1459.96ZM1459.96 2628.1L1460.96 2628.07C1460.96 2627.74 1460.95 2627.4 1460.93 2627.06L1459.93 2627.1L1458.93 2627.14C1458.95 2627.46 1458.96 2627.79 1458.97 2628.13L1459.96 2628.1ZM1459.93 2627.1L1460 2628.1C1821.8 2603.61 2141.53 2425.79 2354.75 2159.11L2353.97 2158.48L2353.19 2157.86C2140.31 2424.12 1821.08 2601.65 1459.87 2626.1L1459.93 2627.1ZM2353.97 2158.48L2353.37 2159.28C2353.64 2159.48 2353.91 2159.69 2354.19 2159.89L2354.78 2159.08L2355.37 2158.27C2355.1 2158.08 2354.84 2157.88 2354.57 2157.68L2353.97 2158.48ZM2431.44 2050.32L2430.87 2051.14C2431.16 2051.34 2431.46 2051.54 2431.77 2051.72L2432.28 2050.86L2432.8 2050.01C2432.53 2049.85 2432.27 2049.68 2432.01 2049.5L2431.44 2050.32ZM2432.28 2050.86L2431.44 2050.33C2429.99 2052.6 2428.53 2054.88 2427.06 2057.14L2427.9 2057.69L2428.74 2058.23C2430.21 2055.96 2431.67 2053.68 2433.13 2051.4L2432.28 2050.86ZM2427.9 2057.69L2428.48 2056.87C2428.21 2056.68 2427.93 2056.48 2427.65 2056.29L2427.08 2057.11L2426.51 2057.93C2426.78 2058.12 2427.04 2058.31 2427.31 2058.5L2427.9 2057.69ZM2427.08 2057.11L2427.92 2057.65C2429.38 2055.39 2430.84 2053.13 2432.29 2050.86L2431.44 2050.32L2430.6 2049.78C2429.15 2052.05 2427.7 2054.31 2426.24 2056.56L2427.08 2057.11ZM1374 121V122C2066.57 122 2628 683.435 2628 1376H2629H2630C2630 682.33 2067.67 120 1374 120V121ZM2629 1376H2628C2628 1613.5 2561.97 1835.58 2447.28 2024.88L2448.13 2025.4L2448.99 2025.91C2563.87 1836.31 2630 1613.88 2630 1376H2629ZM2448.13 2025.4L2448.68 2024.56C2448.38 2024.36 2448.07 2024.18 2447.76 2024.01L2447.28 2024.88L2446.79 2025.76C2447.06 2025.91 2447.33 2026.07 2447.59 2026.24L2448.13 2025.4ZM2447.28 2024.88L2448.13 2025.4C2562.92 1835.94 2629 1613.69 2629 1376H2628H2627C2627 1613.31 2561.03 1835.21 2446.42 2024.36L2447.28 2024.88ZM2628 1376H2629C2629 682.883 2067.12 121 1374 121V122V123C2066.01 123 2627 683.987 2627 1376H2628ZM1374 122V121C702.001 121 153.363 649.165 120.554 1313.02L121.553 1313.07L122.552 1313.12C155.308 650.324 703.072 123 1374 123V122ZM121.553 1313.07L121.601 1312.07C121.261 1312.06 120.922 1312.05 120.585 1312.03L120.553 1313.03L120.521 1314.03C120.852 1314.04 121.179 1314.06 121.505 1314.07L121.553 1313.07ZM120.553 1313.03L121.552 1313.08C154.328 649.75 702.533 122 1374 122V121V120C701.461 120 152.383 648.592 119.554 1312.98L120.553 1313.03Z" fill="white" mask="url(#path-6-outside-1_26_345)"/>
</svg>
