<svg width="2750" height="2750" viewBox="0 0 2750 2750" fill="none" xmlns="http://www.w3.org/2000/svg">
<circle cx="77.7752" cy="77.7752" r="76.2752" transform="matrix(1 0 0 -1 684.745 2143.91)" stroke="white" stroke-width="3"/>
<circle cx="20.3276" cy="20.3276" r="18.8276" transform="matrix(1 0 0 -1 850 2092.66)" stroke="white" stroke-width="3"/>
<mask id="path-3-outside-1_26_344" maskUnits="userSpaceOnUse" x="651.044" y="1954.66" width="223" height="223" fill="black">
<rect fill="white" x="651.044" y="1954.66" width="223" height="223"/>
<path d="M762.521 1955.66C818.771 1955.66 865.202 1997.7 872.109 2052.08C871.772 2052.05 871.433 2052.03 871.092 2052.02C864.163 1998.23 818.197 1956.66 762.521 1956.66C702.059 1956.66 653.044 2005.68 653.044 2066.14C653.044 2126.6 702.058 2175.62 762.521 2175.62C813.86 2175.62 856.942 2140.28 868.775 2092.6C869.112 2092.62 869.452 2092.64 869.793 2092.65C858.028 2140.42 815.194 2175.96 763.948 2176.61L762.521 2176.62C701.506 2176.62 652.044 2127.15 652.044 2066.14L652.053 2064.71C652.811 2004.83 701.211 1956.43 761.092 1955.67L762.521 1955.66Z"/>
</mask>
<path d="M762.521 1955.66C818.771 1955.66 865.202 1997.7 872.109 2052.08C871.772 2052.05 871.433 2052.03 871.092 2052.02C864.163 1998.23 818.197 1956.66 762.521 1956.66C702.059 1956.66 653.044 2005.68 653.044 2066.14C653.044 2126.6 702.058 2175.62 762.521 2175.62C813.86 2175.62 856.942 2140.28 868.775 2092.6C869.112 2092.62 869.452 2092.64 869.793 2092.65C858.028 2140.42 815.194 2175.96 763.948 2176.61L762.521 2176.62C701.506 2176.62 652.044 2127.15 652.044 2066.14L652.053 2064.71C652.811 2004.83 701.211 1956.43 761.092 1955.67L762.521 1955.66Z" fill="white"/>
<path d="M762.521 1955.66L762.521 1954.66L762.514 1954.66L762.521 1955.66ZM872.109 2052.08L872.023 2053.07L873.258 2053.18L873.101 2051.95L872.109 2052.08ZM871.092 2052.02L870.1 2052.14L870.208 2052.98L871.055 2053.01L871.092 2052.02ZM762.521 1956.66L762.521 1955.66H762.521V1956.66ZM653.044 2066.14H652.044V2066.14H653.044ZM762.521 2175.62V2176.62H762.521L762.521 2175.62ZM868.775 2092.6L868.851 2091.6L868.008 2091.53L867.805 2092.35L868.775 2092.6ZM869.793 2092.65L870.764 2092.89L871.061 2091.68L869.819 2091.65L869.793 2092.65ZM763.948 2176.61L763.954 2177.61L763.961 2177.61L763.948 2176.61ZM762.521 2176.62V2177.62L762.527 2177.62L762.521 2176.62ZM652.044 2066.14L651.044 2066.13V2066.14H652.044ZM652.053 2064.71L651.053 2064.7L651.053 2064.7L652.053 2064.71ZM761.092 1955.67L761.086 1954.67L761.079 1954.67L761.092 1955.67ZM762.521 1955.66L762.521 1956.66C818.261 1956.66 864.273 1998.32 871.117 2052.2L872.109 2052.08L873.101 2051.95C866.132 1997.08 819.281 1954.66 762.521 1954.66L762.521 1955.66ZM872.109 2052.08L872.196 2051.08C871.842 2051.05 871.486 2051.03 871.129 2051.02L871.092 2052.02L871.055 2053.01C871.381 2053.03 871.703 2053.05 872.023 2053.07L872.109 2052.08ZM871.092 2052.02L872.084 2051.89C865.092 1997.61 818.706 1955.66 762.521 1955.66L762.521 1956.66L762.521 1957.66C817.687 1957.66 863.235 1998.85 870.1 2052.14L871.092 2052.02ZM762.521 1956.66V1955.66C701.506 1955.66 652.044 2005.12 652.044 2066.14H653.044H654.044C654.044 2006.23 702.611 1957.66 762.521 1957.66V1956.66ZM653.044 2066.14H652.044C652.044 2127.15 701.506 2176.62 762.521 2176.62V2175.62V2174.62C702.611 2174.62 654.044 2126.05 654.044 2066.14H653.044ZM762.521 2175.62L762.521 2176.62C814.33 2176.62 857.805 2140.95 869.746 2092.84L868.775 2092.6L867.805 2092.35C856.08 2139.6 813.389 2174.62 762.521 2174.62L762.521 2175.62ZM868.775 2092.6L868.7 2093.59C869.053 2093.62 869.409 2093.64 869.767 2093.65L869.793 2092.65L869.819 2091.65C869.494 2091.64 869.172 2091.62 868.851 2091.6L868.775 2092.6ZM869.793 2092.65L868.822 2092.41C857.164 2139.74 814.716 2174.96 763.936 2175.61L763.948 2176.61L763.961 2177.61C815.672 2176.95 858.893 2141.09 870.764 2092.89L869.793 2092.65ZM763.948 2176.61L763.942 2175.61L762.514 2175.62L762.521 2176.62L762.527 2177.62L763.954 2177.61L763.948 2176.61ZM762.521 2176.62V2175.62C702.058 2175.62 653.044 2126.6 653.044 2066.14H652.044H651.044C651.044 2127.71 700.954 2177.62 762.521 2177.62V2176.62ZM652.044 2066.14L653.044 2066.14L653.053 2064.72L652.053 2064.71L651.053 2064.7L651.044 2066.13L652.044 2066.14ZM652.053 2064.71L653.053 2064.72C653.804 2005.39 701.766 1957.42 761.104 1956.67L761.092 1955.67L761.079 1954.67C700.656 1955.44 651.818 2004.28 651.053 2064.7L652.053 2064.71ZM761.092 1955.67L761.098 1956.67L762.527 1956.66L762.521 1955.66L762.514 1954.66L761.086 1954.67L761.092 1955.67Z" fill="white" mask="url(#path-3-outside-1_26_344)"/>
<circle cx="20.3276" cy="20.3276" r="18.8276" transform="matrix(1 0 0 -1 631.716 1975.99)" stroke="white" stroke-width="3"/>
<circle cx="67.6114" cy="67.6114" r="66.1114" transform="matrix(1 0 0 -1 875.647 624.646)" stroke="white" stroke-width="3"/>
<circle cx="2075.42" cy="770.032" r="48.4352" stroke="white" stroke-width="3"/>
<circle cx="16.3505" cy="16.3505" r="14.8505" transform="matrix(1 0 0 -1 2136 786.701)" stroke="white" stroke-width="3"/>
<path d="M2075.42 688.815C2114.87 688.816 2147.74 716.94 2155.1 754.23C2154.21 754.079 2153.29 754 2152.35 754C2152.23 754 2152.11 754.001 2151.99 754.004C2144.59 718.494 2113.12 691.816 2075.42 691.815C2032.22 691.816 1997.2 726.834 1997.2 770.032C1997.2 812.893 2031.68 847.702 2074.41 848.243L2075.42 848.25C2112.9 848.25 2144.22 821.887 2151.86 786.692C2152.02 786.697 2152.19 786.701 2152.35 786.701C2153.24 786.701 2154.11 786.628 2154.97 786.491C2147.36 823.455 2114.63 851.25 2075.42 851.25C2030.56 851.25 1994.2 814.887 1994.2 770.032C1994.2 725.178 2030.56 688.816 2075.42 688.815Z" fill="white"/>
<mask id="path-10-outside-2_26_344" maskUnits="userSpaceOnUse" x="446" y="446" width="1858" height="1858" fill="black">
<rect fill="white" x="446" y="446" width="1858" height="1858"/>
<path d="M2108.95 807.035C2230.59 964.001 2303 1161.04 2303 1375C2303 1887.52 1887.52 2303 1375 2303C1166.83 2303 974.661 2234.45 819.845 2118.7C820.071 2118.45 820.295 2118.2 820.519 2117.96C975.155 2233.55 1167.08 2302 1375 2302C1886.97 2302 2302 1886.97 2302 1375C2302 1161.3 2229.69 964.489 2108.2 807.7C2108.45 807.481 2108.7 807.26 2108.95 807.035ZM665.139 1971.21C677.685 1986.13 690.693 2000.65 704.141 2014.75C703.92 2015 703.7 2015.25 703.482 2015.51C689.992 2001.37 676.944 1986.8 664.359 1971.83C664.624 1971.63 664.884 1971.42 665.139 1971.21ZM883.577 588.831C621.968 752.705 448 1043.54 448 1375C448 1587.45 519.466 1783.2 639.668 1939.54C639.404 1939.74 639.144 1939.95 638.891 1940.17C518.549 1783.66 447 1587.69 447 1375C447 1043.15 621.184 751.987 883.111 587.943C883.264 588.241 883.42 588.536 883.577 588.831ZM1375 447C1637.66 447 1874.83 556.122 2043.65 731.502C2043.39 731.715 2043.14 731.932 2042.89 732.149C1874.25 556.985 1637.35 448 1375 448C1242.75 448 1116.97 475.695 1003.13 525.602C1002.98 525.305 1002.82 525.011 1002.66 524.717C1116.63 474.736 1242.58 447 1375 447Z"/>
</mask>
<path d="M2108.95 807.035C2230.59 964.001 2303 1161.04 2303 1375C2303 1887.52 1887.52 2303 1375 2303C1166.83 2303 974.661 2234.45 819.845 2118.7C820.071 2118.45 820.295 2118.2 820.519 2117.96C975.155 2233.55 1167.08 2302 1375 2302C1886.97 2302 2302 1886.97 2302 1375C2302 1161.3 2229.69 964.489 2108.2 807.7C2108.45 807.481 2108.7 807.26 2108.95 807.035ZM665.139 1971.21C677.685 1986.13 690.693 2000.65 704.141 2014.75C703.92 2015 703.7 2015.25 703.482 2015.51C689.992 2001.37 676.944 1986.8 664.359 1971.83C664.624 1971.63 664.884 1971.42 665.139 1971.21ZM883.577 588.831C621.968 752.705 448 1043.54 448 1375C448 1587.45 519.466 1783.2 639.668 1939.54C639.404 1939.74 639.144 1939.95 638.891 1940.17C518.549 1783.66 447 1587.69 447 1375C447 1043.15 621.184 751.987 883.111 587.943C883.264 588.241 883.42 588.536 883.577 588.831ZM1375 447C1637.66 447 1874.83 556.122 2043.65 731.502C2043.39 731.715 2043.14 731.932 2042.89 732.149C1874.25 556.985 1637.35 448 1375 448C1242.75 448 1116.97 475.695 1003.13 525.602C1002.98 525.305 1002.82 525.011 1002.66 524.717C1116.63 474.736 1242.58 447 1375 447Z" fill="white"/>
<path d="M2108.95 807.035L2109.74 806.423L2109.08 805.569L2108.28 806.294L2108.95 807.035ZM819.845 2118.7L819.108 2118.02L818.36 2118.84L819.246 2119.5L819.845 2118.7ZM820.519 2117.96L821.117 2117.15L820.384 2116.61L819.773 2117.29L820.519 2117.96ZM2108.2 807.7L2107.54 806.946L2106.83 807.566L2107.41 808.313L2108.2 807.7ZM665.139 1971.21L665.904 1970.56L665.26 1969.8L664.494 1970.44L665.139 1971.21ZM704.141 2014.75L704.891 2015.41L705.497 2014.72L704.864 2014.06L704.141 2014.75ZM703.482 2015.51L702.759 2016.2L703.521 2017L704.241 2016.16L703.482 2015.51ZM664.359 1971.83L663.753 1971.04L662.919 1971.67L663.594 1972.48L664.359 1971.83ZM883.577 588.831L884.108 589.679L884.899 589.183L884.459 588.36L883.577 588.831ZM639.668 1939.54L640.277 1940.33L641.07 1939.72L640.461 1938.93L639.668 1939.54ZM638.891 1940.17L638.098 1940.77L638.738 1941.61L639.538 1940.93L638.891 1940.17ZM883.111 587.943L884 587.486L883.502 586.518L882.581 587.096L883.111 587.943ZM2043.65 731.502L2044.29 732.273L2045.12 731.586L2044.37 730.808L2043.65 731.502ZM2042.89 732.149L2042.17 732.843L2042.82 733.524L2043.54 732.908L2042.89 732.149ZM1003.13 525.602L1002.25 526.067L1002.68 526.891L1003.54 526.517L1003.13 525.602ZM1002.66 524.717L1002.26 523.801L1001.26 524.239L1001.78 525.196L1002.66 524.717ZM2108.95 807.035L2108.16 807.648C2229.67 964.445 2302 1161.27 2302 1375H2303H2304C2304 1160.82 2231.52 963.558 2109.74 806.423L2108.95 807.035ZM2303 1375H2302C2302 1886.97 1886.97 2302 1375 2302V2303V2304C1888.07 2304 2304 1888.07 2304 1375H2303ZM1375 2303V2302C1167.05 2302 975.092 2233.53 820.444 2117.9L819.845 2118.7L819.246 2119.5C974.229 2235.38 1166.6 2304 1375 2304V2303ZM819.845 2118.7L820.582 2119.38C820.812 2119.13 821.039 2118.87 821.264 2118.62L820.519 2117.96L819.773 2117.29C819.552 2117.54 819.33 2117.78 819.108 2118.02L819.845 2118.7ZM820.519 2117.96L819.92 2118.76C974.723 2234.48 1166.86 2303 1375 2303V2302V2301C1167.31 2301 975.586 2232.62 821.117 2117.15L820.519 2117.96ZM1375 2302V2303C1887.52 2303 2303 1887.52 2303 1375H2302H2301C2301 1886.42 1886.42 2301 1375 2301V2302ZM2302 1375H2303C2303 1161.07 2230.61 964.045 2108.99 807.088L2108.2 807.7L2107.41 808.313C2228.77 964.932 2301 1161.53 2301 1375H2302ZM2108.2 807.7L2108.86 808.454C2109.11 808.232 2109.37 808.006 2109.62 807.776L2108.95 807.035L2108.28 806.294C2108.04 806.513 2107.79 806.729 2107.54 806.946L2108.2 807.7ZM665.139 1971.21L664.373 1971.85C676.933 1986.79 689.955 2001.33 703.417 2015.44L704.141 2014.75L704.864 2014.06C691.431 1999.98 678.437 1985.47 665.904 1970.56L665.139 1971.21ZM704.141 2014.75L703.39 2014.09C703.166 2014.34 702.944 2014.6 702.724 2014.86L703.482 2015.51L704.241 2016.16C704.456 2015.91 704.673 2015.66 704.891 2015.41L704.141 2014.75ZM703.482 2015.51L704.206 2014.82C690.73 2000.69 677.696 1986.14 665.125 1971.19L664.359 1971.83L663.594 1972.48C676.192 1987.46 689.254 2002.04 702.759 2016.2L703.482 2015.51ZM664.359 1971.83L664.966 1972.63C665.245 1972.42 665.517 1972.2 665.783 1971.97L665.139 1971.21L664.494 1970.44C664.251 1970.65 664.004 1970.85 663.753 1971.04L664.359 1971.83ZM883.577 588.831L883.046 587.984C621.157 752.033 447 1043.18 447 1375H448H449C449 1043.9 622.778 753.377 884.108 589.679L883.577 588.831ZM448 1375H447C447 1587.68 518.543 1783.64 638.875 1940.15L639.668 1939.54L640.461 1938.93C520.388 1782.76 449 1587.22 449 1375H448ZM639.668 1939.54L639.059 1938.74C638.782 1938.96 638.51 1939.18 638.243 1939.4L638.891 1940.17L639.538 1940.93C639.779 1940.72 640.026 1940.52 640.277 1940.33L639.668 1939.54ZM638.891 1940.17L639.683 1939.56C519.472 1783.22 448 1587.46 448 1375H447H446C446 1587.91 517.627 1784.1 638.098 1940.77L638.891 1940.17ZM447 1375H448C448 1043.51 621.994 752.659 883.642 588.791L883.111 587.943L882.581 587.096C620.374 751.314 446 1042.79 446 1375H447ZM883.111 587.943L882.222 588.401C882.378 588.703 882.536 589.004 882.695 589.302L883.577 588.831L884.459 588.36C884.304 588.069 884.151 587.778 884 587.486L883.111 587.943ZM1375 447V448C1637.37 448 1874.29 557.003 2042.93 732.195L2043.65 731.502L2044.37 730.808C1875.37 555.24 1637.94 446 1375 446V447ZM2043.65 731.502L2043.01 730.731C2042.75 730.95 2042.49 731.173 2042.23 731.391L2042.89 732.149L2043.54 732.908C2043.79 732.69 2044.04 732.479 2044.29 732.273L2043.65 731.502ZM2042.89 732.149L2043.61 731.456C1874.79 556.104 1637.63 447 1375 447V448V449C1637.07 449 1873.71 557.866 2042.17 732.843L2042.89 732.149ZM1375 448V447C1242.61 447 1116.69 474.725 1002.73 524.686L1003.13 525.602L1003.54 526.517C1117.24 476.666 1242.89 449 1375 449V448ZM1003.13 525.602L1004.02 525.136C1003.86 524.834 1003.7 524.535 1003.54 524.238L1002.66 524.717L1001.78 525.196C1001.94 525.486 1002.1 525.776 1002.25 526.067L1003.13 525.602ZM1002.66 524.717L1003.06 525.633C1116.91 475.707 1242.72 448 1375 448V447V446C1242.44 446 1116.36 473.766 1002.26 523.801L1002.66 524.717Z" fill="white" mask="url(#path-10-outside-2_26_344)"/>
</svg>
